<svg width="87" height="87" viewBox="0 0 87 87" fill="none" xmlns="http://www.w3.org/2000/svg">
<circle cx="43.5" cy="43.5" r="43.5" fill="#009EB3"/>
<path fill-rule="evenodd" clip-rule="evenodd" d="M25.7164 43.5003C26.6957 44.9694 28.7144 46.2999 31.5275 47.3161L31.5274 47.3161C31.8954 47.4034 32.1667 47.7157 32.2019 48.092V51.7877C32.2019 52.4715 31.0377 52.8826 30.1139 52.5314C28.4946 51.9494 26.9731 51.1255 25.6007 50.0876C23.9238 48.7523 23 47.2233 23 45.625V41.3751C23 36.6726 31.0981 32.7878 41.478 32.2796V29.0828C41.478 29.0228 41.612 28.9674 41.6952 29.0228L50.167 34.9313C50.1882 34.9448 50.2011 34.9683 50.2011 34.9935C50.2011 35.0189 50.1882 35.0424 50.167 35.056L41.6952 40.9641C41.612 41.0195 41.478 40.9827 41.478 40.9041V37.8229C33.9159 38.2157 27.7349 40.4929 25.7164 43.5003ZM57.4607 34.4685C59.08 35.0504 60.6015 35.8744 61.9739 36.9123L61.974 36.9118C63.6509 38.2468 64.5747 39.7758 64.5747 41.374V45.624C64.5747 50.3269 56.4765 54.2121 46.0967 54.7203V57.9171C46.0967 57.977 45.9626 58.0325 45.8795 57.977L37.4077 52.0686C37.3864 52.0551 37.3735 52.0316 37.3735 52.0064C37.3735 51.981 37.3864 51.9575 37.4077 51.9439L45.8795 46.0358C45.9626 45.9804 46.0967 46.0171 46.0967 46.0958V49.177C53.6588 48.7841 59.8398 46.507 61.8582 43.4996C60.879 42.0306 58.8603 40.7001 56.0472 39.6609C55.6866 39.5762 55.4172 39.2755 55.3727 38.9078V35.2122C55.3727 34.5284 56.5369 34.1172 57.4607 34.4685Z" fill="white"/>
</svg>
