<svg width="15" height="15" viewBox="0 0 15 15" fill="none" xmlns="http://www.w3.org/2000/svg">
<path d="M7.24769 0.118204L7.01093 0.355932C6.85404 0.513497 6.85404 0.768979 7.01093 0.926577L12.9873 6.92839L0.401785 6.9284C0.179899 6.9284 -6.89848e-07 7.10906 -6.70367e-07 7.33189L-6.40972e-07 7.66814C-6.21491e-07 7.89097 0.1799 8.07164 0.401785 8.07164L12.9873 8.07164L7.01093 14.0735C6.85404 14.231 6.85404 14.4865 7.01093 14.6441L7.24769 14.8818C7.40458 15.0394 7.65898 15.0394 7.81588 14.8818L14.8823 7.78532C15.0392 7.62776 15.0392 7.37227 14.8823 7.21468L7.81588 0.11817C7.65898 -0.0393956 7.40458 -0.0393947 7.24769 0.118204Z" fill="#009EB3"/>
</svg>
