<svg width="77" height="77" viewBox="0 0 77 77" fill="none" xmlns="http://www.w3.org/2000/svg">
<rect x="1" y="1" width="75" height="75" rx="37.5" stroke="white" stroke-width="2"/>
<path d="M38.8532 48.8345L39.1847 48.5017C39.4043 48.2811 39.4043 47.9234 39.1847 47.7028L30.8178 39.3002L48.4375 39.3002C48.7481 39.3002 49 39.0473 49 38.7354L49 38.2646C49 37.9526 48.7481 37.6997 48.4375 37.6997L30.8178 37.6997L39.1847 29.2972C39.4043 29.0766 39.4043 28.7189 39.1847 28.4983L38.8532 28.1654C38.6336 27.9449 38.2774 27.9449 38.0578 28.1654L28.1647 38.1005C27.9451 38.3211 27.9451 38.6788 28.1647 38.8995L38.0578 48.8346C38.2774 49.0552 38.6336 49.0552 38.8532 48.8345V48.8345Z" fill="white"/>
</svg>
