<svg width="32" height="32" viewBox="0 0 32 32" fill="none" xmlns="http://www.w3.org/2000/svg">
<path opacity="0.4" d="M30.4379 22.8954C29.692 22.1495 28.7417 21.6416 27.7071 21.4358C26.6726 21.23 25.6002 21.3357 24.6257 21.7393C23.6511 22.143 22.8182 22.8266 22.2322 23.7036C21.6461 24.5807 21.3333 25.6118 21.3333 26.6667C21.3333 27.7215 21.6461 28.7526 22.2322 29.6297C22.8182 30.5068 23.6511 31.1903 24.6257 31.594C25.6002 31.9977 26.6726 32.1033 27.7071 31.8975C28.7417 31.6917 29.692 31.1838 30.4379 30.4379C30.9331 29.9427 31.326 29.3547 31.594 28.7077C31.862 28.0606 32 27.3671 32 26.6667C32 25.9663 31.862 25.2728 31.594 24.6257C31.326 23.9786 30.9331 23.3907 30.4379 22.8954ZM1.56208 1.56211C0.816209 2.30799 0.308262 3.2583 0.102478 4.29286C-0.103307 5.32743 0.00231345 6.39978 0.405982 7.37431C0.80965 8.34885 1.49324 9.1818 2.3703 9.76783C3.24736 10.3539 4.2785 10.6667 5.33333 10.6667C6.38816 10.6667 7.4193 10.3539 8.29636 9.76783C9.17343 9.1818 9.85701 8.34885 10.2607 7.37431C10.6643 6.39978 10.77 5.32743 10.5642 4.29286C10.3584 3.2583 9.85045 2.30799 9.10458 1.56211C8.60933 1.06686 8.02139 0.674007 7.37432 0.405979C6.72724 0.137952 6.03372 0 5.33333 0C4.63295 0 3.93942 0.137952 3.29235 0.405979C2.64527 0.674007 2.05733 1.06686 1.56208 1.56211Z" fill="#009EB3"/>
<path d="M30.2763 7.38046L7.38052 30.2763C6.88044 30.7762 6.20225 31.0571 5.49511 31.0571C4.78796 31.0571 4.10977 30.7762 3.60969 30.2763L1.72469 28.3913C1.22472 27.8912 0.943848 27.213 0.943848 26.5059C0.943848 25.7987 1.22472 25.1205 1.72469 24.6204L24.6205 1.72463C25.1206 1.22466 25.7988 0.943787 26.5059 0.943787C27.2131 0.943787 27.8913 1.22466 28.3913 1.72463L30.2763 3.60963C30.7763 4.10971 31.0572 4.7879 31.0572 5.49505C31.0572 6.20219 30.7763 6.88038 30.2763 7.38046Z" fill="#009EB3"/>
</svg>
