<svg width="28" height="32" viewBox="0 0 28 32" fill="none" xmlns="http://www.w3.org/2000/svg">
<path opacity="0.4" d="M11.25 10H8.75C8.55109 10 8.36032 10.079 8.21967 10.2197C8.07902 10.3603 8 10.5511 8 10.75V13.25C8 13.4489 8.07902 13.6397 8.21967 13.7803C8.36032 13.921 8.55109 14 8.75 14H11.25C11.4489 14 11.6397 13.921 11.7803 13.7803C11.921 13.6397 12 13.4489 12 13.25V10.75C12 10.5511 11.921 10.3603 11.7803 10.2197C11.6397 10.079 11.4489 10 11.25 10ZM11.25 16H8.75C8.55109 16 8.36032 16.079 8.21967 16.2197C8.07902 16.3603 8 16.5511 8 16.75V19.25C8 19.4489 8.07902 19.6397 8.21967 19.7803C8.36032 19.921 8.55109 20 8.75 20H11.25C11.4489 20 11.6397 19.921 11.7803 19.7803C11.921 19.6397 12 19.4489 12 19.25V16.75C12 16.5511 11.921 16.3603 11.7803 16.2197C11.6397 16.079 11.4489 16 11.25 16ZM11.25 4H8.75C8.55109 4 8.36032 4.07902 8.21967 4.21967C8.07902 4.36032 8 4.55109 8 4.75V7.25C8 7.44891 8.07902 7.63968 8.21967 7.78033C8.36032 7.92098 8.55109 8 8.75 8H11.25C11.4489 8 11.6397 7.92098 11.7803 7.78033C11.921 7.63968 12 7.44891 12 7.25V4.75C12 4.55109 11.921 4.36032 11.7803 4.21967C11.6397 4.07902 11.4489 4 11.25 4ZM19.25 4H16.75C16.5511 4 16.3603 4.07902 16.2197 4.21967C16.079 4.36032 16 4.55109 16 4.75V7.25C16 7.44891 16.079 7.63968 16.2197 7.78033C16.3603 7.92098 16.5511 8 16.75 8H19.25C19.4489 8 19.6397 7.92098 19.7803 7.78033C19.921 7.63968 20 7.44891 20 7.25V4.75C20 4.55109 19.921 4.36032 19.7803 4.21967C19.6397 4.07902 19.4489 4 19.25 4ZM19.25 10H16.75C16.5511 10 16.3603 10.079 16.2197 10.2197C16.079 10.3603 16 10.5511 16 10.75V13.25C16 13.4489 16.079 13.6397 16.2197 13.7803C16.3603 13.921 16.5511 14 16.75 14H19.25C19.4489 14 19.6397 13.921 19.7803 13.7803C19.921 13.6397 20 13.4489 20 13.25V10.75C20 10.5511 19.921 10.3603 19.7803 10.2197C19.6397 10.079 19.4489 10 19.25 10ZM19.25 16H16.75C16.5511 16 16.3603 16.079 16.2197 16.2197C16.079 16.3603 16 16.5511 16 16.75V19.25C16 19.4489 16.079 19.6397 16.2197 19.7803C16.3603 19.921 16.5511 20 16.75 20H19.25C19.4489 20 19.6397 19.921 19.7803 19.7803C19.921 19.6397 20 19.4489 20 19.25V16.75C20 16.5511 19.921 16.3603 19.7803 16.2197C19.6397 16.079 19.4489 16 19.25 16Z" fill="#009EB3"/>
<path d="M27.25 30H26V1.5C26 1.10218 25.842 0.720644 25.5607 0.43934C25.2794 0.158035 24.8978 0 24.5 0L3.5 0C3.10218 0 2.72064 0.158035 2.43934 0.43934C2.15804 0.720644 2 1.10218 2 1.5V30H0.75C0.551088 30 0.360322 30.079 0.21967 30.2197C0.0790176 30.3603 0 30.5511 0 30.75L0 32H28V30.75C28 30.5511 27.921 30.3603 27.7803 30.2197C27.6397 30.079 27.4489 30 27.25 30ZM8 4.75C8 4.55109 8.07902 4.36032 8.21967 4.21967C8.36032 4.07902 8.55109 4 8.75 4H11.25C11.4489 4 11.6397 4.07902 11.7803 4.21967C11.921 4.36032 12 4.55109 12 4.75V7.25C12 7.44891 11.921 7.63968 11.7803 7.78033C11.6397 7.92098 11.4489 8 11.25 8H8.75C8.55109 8 8.36032 7.92098 8.21967 7.78033C8.07902 7.63968 8 7.44891 8 7.25V4.75ZM8 10.75C8 10.5511 8.07902 10.3603 8.21967 10.2197C8.36032 10.079 8.55109 10 8.75 10H11.25C11.4489 10 11.6397 10.079 11.7803 10.2197C11.921 10.3603 12 10.5511 12 10.75V13.25C12 13.4489 11.921 13.6397 11.7803 13.7803C11.6397 13.921 11.4489 14 11.25 14H8.75C8.55109 14 8.36032 13.921 8.21967 13.7803C8.07902 13.6397 8 13.4489 8 13.25V10.75ZM11.25 20H8.75C8.55109 20 8.36032 19.921 8.21967 19.7803C8.07902 19.6397 8 19.4489 8 19.25V16.75C8 16.5511 8.07902 16.3603 8.21967 16.2197C8.36032 16.079 8.55109 16 8.75 16H11.25C11.4489 16 11.6397 16.079 11.7803 16.2197C11.921 16.3603 12 16.5511 12 16.75V19.25C12 19.4489 11.921 19.6397 11.7803 19.7803C11.6397 19.921 11.4489 20 11.25 20ZM16 30H12V24.75C12 24.5511 12.079 24.3603 12.2197 24.2197C12.3603 24.079 12.5511 24 12.75 24H15.25C15.4489 24 15.6397 24.079 15.7803 24.2197C15.921 24.3603 16 24.5511 16 24.75V30ZM20 19.25C20 19.4489 19.921 19.6397 19.7803 19.7803C19.6397 19.921 19.4489 20 19.25 20H16.75C16.5511 20 16.3603 19.921 16.2197 19.7803C16.079 19.6397 16 19.4489 16 19.25V16.75C16 16.5511 16.079 16.3603 16.2197 16.2197C16.3603 16.079 16.5511 16 16.75 16H19.25C19.4489 16 19.6397 16.079 19.7803 16.2197C19.921 16.3603 20 16.5511 20 16.75V19.25ZM20 13.25C20 13.4489 19.921 13.6397 19.7803 13.7803C19.6397 13.921 19.4489 14 19.25 14H16.75C16.5511 14 16.3603 13.921 16.2197 13.7803C16.079 13.6397 16 13.4489 16 13.25V10.75C16 10.5511 16.079 10.3603 16.2197 10.2197C16.3603 10.079 16.5511 10 16.75 10H19.25C19.4489 10 19.6397 10.079 19.7803 10.2197C19.921 10.3603 20 10.5511 20 10.75V13.25ZM20 7.25C20 7.44891 19.921 7.63968 19.7803 7.78033C19.6397 7.92098 19.4489 8 19.25 8H16.75C16.5511 8 16.3603 7.92098 16.2197 7.78033C16.079 7.63968 16 7.44891 16 7.25V4.75C16 4.55109 16.079 4.36032 16.2197 4.21967C16.3603 4.07902 16.5511 4 16.75 4H19.25C19.4489 4 19.6397 4.07902 19.7803 4.21967C19.921 4.36032 20 4.55109 20 4.75V7.25Z" fill="#009EB3"/>
</svg>
