<svg width="38" height="25" viewBox="0 0 38 25" fill="none" xmlns="http://www.w3.org/2000/svg">
<path opacity="0.4" d="M17.4313 8.33333H20.0706C20.1801 8.3333 20.2884 8.31025 20.3884 8.26568C20.4884 8.22111 20.578 8.15601 20.6512 8.07462C20.7244 7.99322 20.7797 7.89733 20.8135 7.79318C20.8473 7.68903 20.8588 7.57894 20.8473 7.47005L20.5479 4.63281C20.5343 4.50436 20.4735 4.38554 20.3772 4.2994C20.281 4.21326 20.1562 4.16595 20.027 4.16667H17.4717C17.3425 4.16595 17.2177 4.21326 17.1215 4.2994C17.0252 4.38554 16.9644 4.50436 16.9508 4.63281L16.652 7.47005C16.6405 7.57916 16.6521 7.68947 16.686 7.7938C16.72 7.89813 16.7755 7.99414 16.849 8.07558C16.9226 8.15702 17.0124 8.22207 17.1127 8.26648C17.213 8.31089 17.3216 8.33366 17.4313 8.33333ZM17.8011 2.08333H19.6995C19.7728 2.08374 19.8453 2.06869 19.9123 2.03916C19.9794 2.00964 20.0394 1.9663 20.0886 1.91199C20.1378 1.85767 20.1749 1.7936 20.1976 1.72396C20.2203 1.65431 20.2281 1.58066 20.2204 1.50781L20.0583 0H17.4424L17.2829 1.50781C17.2752 1.58044 17.2829 1.65387 17.3055 1.72334C17.328 1.7928 17.3649 1.85674 17.4138 1.91102C17.4627 1.96529 17.5224 2.00868 17.5891 2.03836C17.6558 2.06805 17.7281 2.08337 17.8011 2.08333ZM22.0257 18.6406C21.9987 18.3847 21.8779 18.1479 21.6867 17.9758C21.4954 17.8036 21.2472 17.7084 20.9899 17.7083H16.5107C16.2534 17.7084 16.0052 17.8036 15.814 17.9758C15.6227 18.1479 15.502 18.3847 15.4749 18.6406L14.8037 25H22.6969L22.0257 18.6406ZM16.9476 15.625H20.5472C20.6932 15.625 20.8376 15.5943 20.971 15.5349C21.1043 15.4754 21.2237 15.3887 21.3214 15.2801C21.4191 15.1716 21.4928 15.0437 21.5379 14.9048C21.583 14.766 21.5983 14.6192 21.583 14.474L21.2529 11.349C21.226 11.0935 21.1056 10.857 20.9149 10.685C20.7241 10.5129 20.4766 10.4173 20.2197 10.4167H17.2803C17.023 10.4167 16.7748 10.512 16.5835 10.6841C16.3923 10.8562 16.2715 11.0931 16.2445 11.349L15.9144 14.474C15.8991 14.6192 15.9144 14.766 15.9595 14.9048C16.0046 15.0437 16.0783 15.1716 16.176 15.2801C16.2737 15.3887 16.3931 15.4754 16.5264 15.5349C16.6598 15.5943 16.8042 15.625 16.9502 15.625H16.9476Z" fill="#009EB3"/>
<path d="M37.3174 22.0488L28.2164 1.21549C27.8929 0.474609 27.1878 0 26.4118 0H20.0582L20.2177 1.50781C20.2254 1.58066 20.2177 1.65431 20.195 1.72396C20.1723 1.7936 20.1351 1.85767 20.086 1.91199C20.0368 1.9663 19.9768 2.00964 19.9097 2.03916C19.8427 2.06869 19.7702 2.08374 19.6969 2.08333H17.8011C17.7278 2.08374 17.6553 2.06869 17.5883 2.03916C17.5212 2.00964 17.4612 1.9663 17.412 1.91199C17.3629 1.85767 17.3257 1.7936 17.303 1.72396C17.2803 1.65431 17.2726 1.58066 17.2802 1.50781L17.4424 0H11.0888C10.7022 0.00444373 10.3252 0.121881 10.0045 0.337851C9.68368 0.553821 9.43307 0.858892 9.2835 1.21549L0.182588 22.0488C-0.419625 23.4284 0.541312 25 1.98858 25H14.8037L15.4749 18.6406C15.5019 18.3847 15.6227 18.1479 15.8139 17.9758C16.0052 17.8036 16.2534 17.7084 16.5107 17.7083H20.9899C21.2472 17.7084 21.4954 17.8036 21.6866 17.9758C21.8779 18.1479 21.9987 18.3847 22.0257 18.6406L22.6969 25H35.512C36.9593 25 37.9202 23.4284 37.3174 22.0488ZM16.6546 7.47005L16.9534 4.63281C16.967 4.50436 17.0278 4.38554 17.124 4.2994C17.2203 4.21326 17.3451 4.16595 17.4743 4.16667H20.0322C20.1614 4.16595 20.2862 4.21326 20.3824 4.2994C20.4787 4.38554 20.5395 4.50436 20.553 4.63281L20.8525 7.47005C20.8641 7.57938 20.8524 7.68991 20.8183 7.79442C20.7842 7.89894 20.7284 7.99508 20.6546 8.07656C20.5808 8.15804 20.4907 8.22303 20.39 8.26728C20.2894 8.31152 20.1805 8.33403 20.0706 8.33333H17.4313C17.3218 8.3333 17.2135 8.31025 17.1135 8.26568C17.0135 8.22111 16.924 8.15601 16.8507 8.07462C16.7775 7.99322 16.7222 7.89733 16.6884 7.79318C16.6546 7.68903 16.6431 7.57894 16.6546 7.47005ZM20.5498 15.625H16.9502C16.8042 15.625 16.6598 15.5943 16.5264 15.5349C16.393 15.4754 16.2736 15.3887 16.176 15.2801C16.0783 15.1716 16.0045 15.0437 15.9595 14.9048C15.9144 14.766 15.899 14.6192 15.9144 14.474L16.2444 11.349C16.2715 11.0931 16.3922 10.8562 16.5835 10.6841C16.7747 10.512 17.0229 10.4167 17.2802 10.4167H20.2197C20.477 10.4167 20.7252 10.512 20.9165 10.6841C21.1077 10.8562 21.2285 11.0931 21.2555 11.349L21.5856 14.474C21.6009 14.6192 21.5855 14.766 21.5405 14.9048C21.4954 15.0437 21.4217 15.1716 21.324 15.2801C21.2263 15.3887 21.1069 15.4754 20.9735 15.5349C20.8402 15.5943 20.6958 15.625 20.5498 15.625Z" fill="#009EB3"/>
</svg>
