<svg width="20" height="32" viewBox="0 0 20 32" fill="none" xmlns="http://www.w3.org/2000/svg">
<path opacity="0.4" d="M12.9727 0C13.5657 0 14.1454 0.175837 14.6384 0.505275C15.1314 0.834714 15.5157 1.30296 15.7426 1.85079C15.9696 2.39863 16.0289 3.00145 15.9133 3.58303C15.7976 4.16461 15.512 4.69883 15.0927 5.11812C14.6734 5.53742 14.1392 5.82296 13.5576 5.93864C12.9761 6.05433 12.3732 5.99495 11.8254 5.76803C11.2776 5.54111 10.8093 5.15683 10.4799 4.6638C10.1504 4.17076 9.97461 3.5911 9.97461 2.99813C9.97461 2.20297 10.2905 1.44039 10.8527 0.878131C11.415 0.315873 12.1776 0 12.9727 0V0Z" fill="#009EB3"/>
<path d="M4.57651 24.0974C4.37808 24.6022 4.07592 25.0597 3.68956 25.4403L0.566512 28.5696C0.200276 28.9459 -0.00320779 29.4511 3.82478e-05 29.9761C0.00328428 30.5012 0.212999 31.0039 0.58386 31.3756C0.95472 31.7472 1.45694 31.9581 1.98198 31.9625C2.50701 31.9669 3.0127 31.7645 3.38975 31.3991L7.10118 27.6889C7.48349 27.3051 7.78488 26.8484 7.9875 26.346L8.83072 24.2348C5.37726 20.4684 6.41411 21.624 5.87007 20.8807L4.57651 24.0974ZM18.8738 15.3092L17.4179 14.5721L16.8126 12.7358C15.8938 9.95001 13.3329 8.00123 10.4285 7.99498C8.17988 7.98873 6.93753 8.62584 4.60149 9.569C3.24783 10.1179 2.1429 11.1448 1.49656 12.4547L1.07869 13.3042C0.843413 13.7775 0.804537 14.3245 0.970519 14.8263C1.1365 15.3281 1.49392 15.7441 1.96501 15.9837C2.19773 16.1006 2.4513 16.1703 2.71108 16.1886C2.97086 16.2069 3.23169 16.1736 3.47852 16.0906C3.72535 16.0075 3.95328 15.8764 4.14913 15.7047C4.34499 15.5331 4.50489 15.3243 4.6196 15.0905L5.03997 14.2411C5.2541 13.805 5.62082 13.4628 6.07057 13.2792L7.7439 12.6046L6.79512 16.396C6.63563 17.0374 6.63714 17.7084 6.7995 18.3491C6.96187 18.9899 7.28006 19.5806 7.72579 20.0687L11.4672 24.1536C11.9152 24.6448 12.2347 25.2392 12.3972 25.8838L13.5409 30.4622C13.6019 30.7195 13.7134 30.9622 13.8688 31.1762C14.0243 31.3902 14.2207 31.5711 14.4466 31.7086C14.6726 31.8461 14.9236 31.9374 15.185 31.9772C15.4465 32.017 15.7133 32.0045 15.9699 31.9405C16.2265 31.8764 16.4678 31.7621 16.6799 31.604C16.892 31.446 17.0706 31.2475 17.2054 31.0199C17.3402 30.7924 17.4285 30.5403 17.4652 30.2784C17.5019 30.0165 17.4862 29.7499 17.4191 29.494L16.0331 23.935C15.8715 23.2899 15.5516 22.6953 15.1024 22.2048L12.2605 19.1005L13.3342 14.8095L13.6777 15.8401C14.0063 16.842 14.7185 17.673 15.6583 18.1511L17.113 18.8882C17.3458 19.0051 17.5993 19.0747 17.8591 19.093C18.1189 19.1114 18.3797 19.0781 18.6266 18.995C18.8734 18.912 19.1013 18.7808 19.2972 18.6092C19.493 18.4375 19.6529 18.2288 19.7676 17.995C19.9998 17.5194 20.0363 16.9717 19.8691 16.4696C19.702 15.9674 19.3447 15.5508 18.8738 15.3092Z" fill="#009EB3"/>
</svg>
