<svg width="38" height="30" viewBox="0 0 38 30" fill="none" xmlns="http://www.w3.org/2000/svg">
<path opacity="0.4" d="M11.4497 3.76377C11.2668 3.73761 11.0805 3.74774 10.9015 3.7936C10.7225 3.83946 10.5543 3.92015 10.4065 4.03104C10.2587 4.14194 10.1342 4.28088 10.0402 4.43992C9.9461 4.59895 9.88429 4.77497 9.85828 4.9579L8.20655 16.5201L9.8161 24.5684C9.84805 24.7386 9.84805 24.9133 9.8161 25.0835C9.8161 25.0688 9.82723 25.0571 9.82957 25.0424L12.642 5.35516C12.6949 4.98602 12.599 4.61099 12.3754 4.31255C12.1518 4.01412 11.8188 3.81672 11.4497 3.76377ZM5.83939 9.39164C5.65687 9.36347 5.47059 9.37153 5.29119 9.41535C5.11179 9.45918 4.94278 9.53791 4.79381 9.64706C4.64484 9.7562 4.51882 9.89362 4.42296 10.0515C4.3271 10.2093 4.26326 10.3845 4.23511 10.567L3.48101 15.4689H0.937489C0.688852 15.4689 0.450398 15.5677 0.274584 15.7435C0.0987709 15.9193 0 16.1578 0 16.4064L0 17.3439C0 17.5925 0.0987709 17.831 0.274584 18.0068C0.450398 18.1826 0.688852 18.2814 0.937489 18.2814H4.68745C5.02323 18.2812 5.34788 18.1609 5.60268 17.9422C5.85748 17.7235 6.02562 17.4209 6.07669 17.089L7.01418 10.9953C7.07091 10.6269 6.97903 10.251 6.75874 9.95031C6.53845 9.64959 6.20777 9.44865 5.83939 9.39164ZM26.4712 3.7667C26.2889 3.73722 26.1026 3.74401 25.9229 3.7867C25.7433 3.82939 25.5738 3.90713 25.4243 4.01546C25.2747 4.12379 25.148 4.26058 25.0515 4.41798C24.9549 4.57539 24.8904 4.75031 24.8616 4.93271L22.6035 19.0495L23.8925 28.4016C23.9112 28.5638 23.9011 28.728 23.8626 28.8867C23.8679 28.8615 23.8831 28.8416 23.8872 28.8164L27.6372 5.37918C27.6664 5.19682 27.6595 5.01048 27.6167 4.8308C27.574 4.65113 27.4962 4.48163 27.3879 4.332C27.2797 4.18238 27.143 4.05554 26.9857 3.95875C26.8284 3.86195 26.6535 3.79709 26.4712 3.76787V3.7667ZM32.1512 9.4016C31.97 9.36458 31.7833 9.36381 31.6018 9.39931C31.4203 9.43482 31.2476 9.50591 31.0938 9.60847C30.9399 9.71104 30.8078 9.84306 30.7052 9.99692C30.6026 10.1508 30.5315 10.3234 30.4959 10.5049L29.293 16.5201L30.4538 24.6452C30.4763 24.8178 30.4663 24.993 30.4245 25.162C30.428 25.1467 30.4379 25.135 30.4409 25.1192L33.2533 11.0569C33.3263 10.6914 33.2512 10.3119 33.0446 10.0017C32.8379 9.69158 32.5166 9.47615 32.1512 9.40277V9.4016ZM18.942 0.0132301C18.759 -0.0120487 18.5728 -0.00102903 18.3941 0.0456597C18.2154 0.0923484 18.0476 0.173791 17.9004 0.285336C17.7531 0.396881 17.6293 0.536341 17.536 0.695751C17.4426 0.85516 17.3816 1.0314 17.3564 1.21439L14.8955 19.0495L16.3879 28.3711C16.4105 28.5349 16.4037 28.7013 16.368 28.8627C16.3732 28.8352 16.3897 28.8135 16.3932 28.7859L20.1431 1.59876C20.1684 1.41578 20.1574 1.22961 20.1107 1.05088C20.064 0.872163 19.9826 0.70439 19.871 0.557151C19.7595 0.409912 19.62 0.286092 19.4606 0.192765C19.3012 0.0994372 19.125 0.0384306 18.942 0.0132301Z" fill="#009EB3"/>
<path d="M6.99071 10.4756C7.03139 10.6458 7.03954 10.8221 7.01473 10.9953L6.07724 17.089C6.02646 17.4118 5.86461 17.7067 5.61963 17.9228L7.05867 25.1192C7.12234 25.438 7.2945 25.7249 7.54587 25.9311C7.79723 26.1373 8.11227 26.25 8.43737 26.2501C8.53084 26.2504 8.6241 26.2412 8.71569 26.2225C9.08108 26.1491 9.40241 25.9337 9.60906 25.6236C9.81572 25.3134 9.8908 24.9339 9.81782 24.5684L7.00535 10.5061C7.00125 10.4944 6.99364 10.4885 6.99071 10.4756ZM12.6156 4.86944C12.6534 5.02846 12.6627 5.19291 12.6432 5.35518L11.3284 14.5455L13.6135 28.8164C13.6664 29.1462 13.8349 29.4464 14.0889 29.6633C14.3429 29.8801 14.6658 29.9995 14.9998 30C15.0746 30.0002 15.1492 29.9943 15.223 29.9824C15.4055 29.9533 15.5803 29.8885 15.7377 29.7917C15.8951 29.6949 16.0318 29.5681 16.1402 29.4185C16.2485 29.2688 16.3263 29.0993 16.3691 28.9196C16.4119 28.7399 16.4189 28.5535 16.3896 28.3711L12.6397 4.93389C12.6344 4.91045 12.6186 4.89288 12.6139 4.86944H12.6156ZM36.562 15.4689H34.0185L33.2644 10.567C33.2644 10.5553 33.2545 10.5465 33.2527 10.5348C33.2855 10.7073 33.2855 10.8844 33.2527 11.0569L31.8805 17.9228C32.1363 18.1529 32.468 18.2805 32.8121 18.2814H36.562C36.8107 18.2814 37.0491 18.1826 37.225 18.0068C37.4008 17.831 37.4995 17.5925 37.4995 17.3439V16.4064C37.4995 16.1578 37.4008 15.9193 37.225 15.7435C37.0491 15.5677 36.8107 15.4689 36.562 15.4689ZM20.1138 1.13062C20.1502 1.28406 20.1601 1.44258 20.1431 1.59936L18.7498 11.7014L21.1064 28.786C21.1528 29.1225 21.3195 29.4308 21.5756 29.654C21.8317 29.8772 22.16 30.0001 22.4997 30C22.5646 29.9997 22.6293 29.9954 22.6937 29.9871C22.8766 29.9619 23.0529 29.9009 23.2123 29.8076C23.3717 29.7143 23.5112 29.5904 23.6227 29.4432C23.7342 29.296 23.8157 29.1282 23.8624 28.9495C23.9091 28.7707 23.9201 28.5846 23.8948 28.4016L20.1449 1.2144C20.139 1.18393 20.1202 1.1605 20.1138 1.13062ZM27.6178 4.89171C27.653 5.05178 27.6597 5.21679 27.6377 5.3792L26.1729 14.5455L27.6723 25.0425C27.7201 25.3772 27.8869 25.6835 28.1421 25.9053C28.3974 26.1271 28.724 26.2495 29.0621 26.2501C29.1295 26.2499 29.1969 26.2454 29.2637 26.2366C29.6327 26.1835 29.9656 25.986 30.189 25.6876C30.4125 25.3892 30.5084 25.0142 30.4555 24.6452L27.643 4.95792C27.6377 4.93389 27.6225 4.91514 27.6178 4.89171Z" fill="#009EB3"/>
</svg>
