<svg width="32" height="32" viewBox="0 0 32 32" fill="none" xmlns="http://www.w3.org/2000/svg">
<path opacity="0.2" d="M0 3.42857V28.5714C0 29.4807 0.361223 30.3528 1.00421 30.9958C1.64719 31.6388 2.51926 32 3.42857 32H28.5714C29.4807 32 30.3528 31.6388 30.9958 30.9958C31.6388 30.3528 32 29.4807 32 28.5714V3.42857C32 2.51926 31.6388 1.64719 30.9958 1.00421C30.3528 0.361224 29.4807 0 28.5714 0H3.42857C2.51926 0 1.64719 0.361224 1.00421 1.00421C0.361223 1.64719 0 2.51926 0 3.42857H0ZM8 25.1429C7.6969 25.1429 7.40621 25.0225 7.19188 24.8081C6.97755 24.5938 6.85714 24.3031 6.85714 24V14.8571C6.85714 14.554 6.97755 14.2633 7.19188 14.049C7.40621 13.8347 7.6969 13.7143 8 13.7143H10.2857C10.5888 13.7143 10.8795 13.8347 11.0938 14.049C11.3082 14.2633 11.4286 14.554 11.4286 14.8571V24C11.4286 24.3031 11.3082 24.5938 11.0938 24.8081C10.8795 25.0225 10.5888 25.1429 10.2857 25.1429H8ZM24 18.2857C24.3031 18.2857 24.5938 18.4061 24.8081 18.6204C25.0225 18.8348 25.1429 19.1255 25.1429 19.4286V24C25.1429 24.3031 25.0225 24.5938 24.8081 24.8081C24.5938 25.0225 24.3031 25.1429 24 25.1429H21.7143C21.4112 25.1429 21.1205 25.0225 20.9062 24.8081C20.6918 24.5938 20.5714 24.3031 20.5714 24V19.4286C20.5714 19.1255 20.6918 18.8348 20.9062 18.6204C21.1205 18.4061 21.4112 18.2857 21.7143 18.2857H24ZM17.1429 6.85714C17.446 6.85714 17.7367 6.97755 17.951 7.19188C18.1653 7.40621 18.2857 7.6969 18.2857 8V24C18.2857 24.3031 18.1653 24.5938 17.951 24.8081C17.7367 25.0225 17.446 25.1429 17.1429 25.1429H14.8571C14.554 25.1429 14.2633 25.0225 14.049 24.8081C13.8347 24.5938 13.7143 24.3031 13.7143 24V8C13.7143 7.6969 13.8347 7.40621 14.049 7.19188C14.2633 6.97755 14.554 6.85714 14.8571 6.85714H17.1429Z" fill="#009EB3"/>
<path d="M11.4284 23.9998V14.8569C11.4284 14.5538 11.308 14.2631 11.0936 14.0488C10.8793 13.8345 10.5886 13.7141 10.2855 13.7141H7.99979C7.69669 13.7141 7.406 13.8345 7.19167 14.0488C6.97734 14.2631 6.85693 14.5538 6.85693 14.8569V23.9998C6.85693 24.3029 6.97734 24.5936 7.19167 24.8079C7.406 25.0222 7.69669 25.1426 7.99979 25.1426H10.2855C10.5886 25.1426 10.8793 25.0222 11.0936 24.8079C11.308 24.5936 11.4284 24.3029 11.4284 23.9998ZM20.5712 19.4284V23.9998C20.5712 24.3029 20.6916 24.5936 20.906 24.8079C21.1203 25.0222 21.411 25.1426 21.7141 25.1426H23.9998C24.3029 25.1426 24.5936 25.0222 24.8079 24.8079C25.0222 24.5936 25.1426 24.3029 25.1426 23.9998V19.4284C25.1426 19.1253 25.0222 18.8346 24.8079 18.6202C24.5936 18.4059 24.3029 18.2855 23.9998 18.2855H21.7141C21.411 18.2855 21.1203 18.4059 20.906 18.6202C20.6916 18.8346 20.5712 19.1253 20.5712 19.4284ZM13.7141 7.99979V23.9998C13.7141 24.3029 13.8345 24.5936 14.0488 24.8079C14.2631 25.0222 14.5538 25.1426 14.8569 25.1426H17.1426C17.4458 25.1426 17.7364 25.0222 17.9508 24.8079C18.1651 24.5936 18.2855 24.3029 18.2855 23.9998V7.99979C18.2855 7.69669 18.1651 7.406 17.9508 7.19167C17.7364 6.97734 17.4458 6.85693 17.1426 6.85693H14.8569C14.5538 6.85693 14.2631 6.97734 14.0488 7.19167C13.8345 7.406 13.7141 7.69669 13.7141 7.99979Z" fill="#009EB3"/>
</svg>
