<svg width="30" height="32" viewBox="0 0 30 32" fill="none" xmlns="http://www.w3.org/2000/svg">
<path opacity="0.4" d="M1.6 25.5989H28.2667C28.691 25.5989 29.098 25.7674 29.398 26.0675C29.6981 26.3676 29.8667 26.7745 29.8667 27.1989V30.3989C29.8667 30.8232 29.6981 31.2302 29.398 31.5302C29.098 31.8303 28.691 31.9989 28.2667 31.9989H1.6C1.17565 31.9989 0.768687 31.8303 0.468629 31.5302C0.168571 31.2302 0 30.8232 0 30.3989L0 27.1989C0 26.7745 0.168571 26.3676 0.468629 26.0675C0.768687 25.7674 1.17565 25.5989 1.6 25.5989Z" fill="#009EB3"/>
<path d="M3.68906 15.1887L15.3851 10.652L3.68106 6.11266C2.46173 5.71266 1.83173 4.49533 2.27439 3.39333L3.0764 1.39999C3.51906 0.296661 4.8664 -0.272006 6.0864 0.127994L26.1997 8.12666C27.1177 8.42799 27.7331 9.23399 27.7331 10.138V11.2047C27.7331 12.1087 27.1191 12.9147 26.1997 13.216L6.10706 21.204C4.88106 21.604 3.52706 21.0347 3.08173 19.9273L2.27573 17.922C1.83039 16.8147 2.4664 15.5907 3.68906 15.1887Z" fill="#009EB3"/>
</svg>
