<svg width="32" height="32" viewBox="0 0 32 32" fill="none" xmlns="http://www.w3.org/2000/svg">
<path opacity="0.4" d="M8.62451 25.3052C10.4068 26.7172 12.5572 27.5877 14.8199 27.813C17.0826 28.0384 19.3625 27.6091 21.3883 26.5762C23.4141 25.5434 25.1006 23.9505 26.2473 21.9869C27.394 20.0233 27.9526 17.7716 27.8567 15.4997C27.7608 13.2279 27.0143 11.0313 25.7062 9.17138C24.3981 7.31143 22.5833 5.86631 20.4776 5.0079C18.372 4.14949 16.0641 3.91391 13.8284 4.32916C11.5928 4.74442 9.5234 5.79305 7.86644 7.35033L11.1413 10.6252C11.7916 11.2755 11.331 12.3871 10.411 12.3871H1.03226C0.758486 12.3871 0.495927 12.2783 0.302341 12.0848C0.108755 11.8912 0 11.6286 0 11.3548V1.97614C0 1.05614 1.11161 0.595498 1.76193 1.24582L4.94774 4.43162C7.92128 1.58256 11.8818 -0.00549937 16 1.43095e-05C24.8264 1.43095e-05 31.9838 7.14711 32 15.9697C32.0161 24.7923 24.8271 31.9935 16.0116 32C12.3533 32.008 8.8037 30.7572 5.9587 28.4574C5.79031 28.3207 5.65252 28.1502 5.55424 27.9569C5.45596 27.7635 5.39939 27.5517 5.3882 27.3351C5.37701 27.1185 5.41144 26.902 5.48927 26.6996C5.5671 26.4971 5.68659 26.3133 5.83999 26.16L6.56709 25.4329C6.83455 25.1628 7.19204 25.0005 7.57145 24.9769C7.95087 24.9533 8.32569 25.0702 8.62451 25.3052Z" fill="#009EB3"/>
<path d="M18.0646 9.29057V16.0228L20.6904 18.0648C20.8509 18.1896 20.9852 18.3448 21.0858 18.5216C21.1863 18.6984 21.251 18.8932 21.2762 19.095C21.3014 19.2967 21.2867 19.5015 21.2328 19.6976C21.1788 19.8936 21.0868 20.0772 20.962 20.2377L20.3284 21.0519C20.2036 21.2124 20.0484 21.3467 19.8716 21.4472C19.6949 21.5478 19.5 21.6125 19.2982 21.6377C19.0965 21.6629 18.8917 21.6482 18.6956 21.5942C18.4996 21.5403 18.3161 21.4483 18.1555 21.3235L13.9355 18.0422V9.29057C13.9355 8.87992 14.0987 8.48608 14.3891 8.1957C14.6794 7.90532 15.0733 7.74219 15.4839 7.74219H16.5162C16.9268 7.74219 17.3207 7.90532 17.6111 8.1957C17.9014 8.48608 18.0646 8.87992 18.0646 9.29057Z" fill="#009EB3"/>
</svg>
