<svg width="32" height="28" viewBox="0 0 32 28" fill="none" xmlns="http://www.w3.org/2000/svg">
<path opacity="0.4" d="M20 16H32V25C32 26.6 30.6 28 29 28H3C1.4 28 0 26.6 0 25V16H12V19C12 19.2652 12.1054 19.5196 12.2929 19.7071C12.4804 19.8946 12.7348 20 13 20H19C19.2652 20 19.5196 19.8946 19.7071 19.7071C19.8946 19.5196 20 19.2652 20 19V16Z" fill="#009EB3"/>
<path d="M29 6H24V3C24 1.4 22.6 0 21 0H11C9.4 0 8 1.4 8 3V6H3C1.4 6 0 7.4 0 9V14H32V9C32 7.4 30.6 6 29 6ZM20 6H12V4H20V6Z" fill="#009EB3"/>
</svg>
