<svg width="77" height="77" viewBox="0 0 77 77" fill="none" xmlns="http://www.w3.org/2000/svg">
<rect x="76" y="76" width="75" height="75" rx="37.5" transform="rotate(180 76 76)" stroke="white" stroke-width="2"/>
<path d="M38.1468 28.1655L37.8153 28.4983C37.5956 28.7189 37.5956 29.0766 37.8153 29.2972L46.1822 37.6998L28.5625 37.6998C28.2519 37.6998 28 37.9527 28 38.2647L28 38.7354C28 39.0474 28.2519 39.3003 28.5625 39.3003L46.1822 39.3003L37.8153 47.7028C37.5956 47.9234 37.5956 48.2811 37.8153 48.5017L38.1468 48.8346C38.3664 49.0551 38.7226 49.0551 38.9422 48.8346L48.8353 38.8995C49.0549 38.6789 49.0549 38.3212 48.8353 38.1005L38.9422 28.1654C38.7226 27.9449 38.3664 27.9449 38.1468 28.1655V28.1655Z" fill="white"/>
</svg>
